# xmcd
#
# Track frame offsets:
#	150
#	14271
#	26468
#	45198
#	55729
#	69487
#	81284
#	98889
#	112294
#	126924
#	141454
#	150265
#
# Disc length: 2139 seconds
# Revision: 0
# Processed by: cddbd v1.5.2PL0 Copyright (c) Steve Scherf et al.
# Submitted via: dBpowerAMP V12.0
#
DISCID=9908590c
DTITLE=Ian McKenzie - Last Chance
DYEAR=2011
DGENRE=Blues/Ragtime
TTITLE0=Whistling Blues
TTITLE1=Don't Trouble Trouble
TTITLE2=Careless Love
TTITLE3=Choogling
TTITLE4=Don't Say Nothin' (When You're Doing Alright
TTITLE5=Half-Step Rag
TTITLE6=Stormy Monday
TTITLE7=Trouble In Mind
TTITLE8=Last Chance
TTITLE9=Dark Was The Night: Cold Was The Ground
TTITLE10=T'Aint No Sin
TTITLE11=Home Town Blues
EXTD=
EXTT0=
EXTT1=
EXTT2=
EXTT3=
EXTT4=
EXTT5=
EXTT6=
EXTT7=
EXTT8=
EXTT9=
EXTT10=
EXTT11=
PLAYORDER=
